<?xml version="1.0" standalone="no"?>
<svg xmlns:xlink="http://www.w3.org/1999/xlink" id="wave" style="transform:rotate(0deg); transition: 0.3s" viewBox="0 0 1440 320" version="1.1" xmlns="http://www.w3.org/2000/svg"><defs><linearGradient id="sw-gradient-0" x1="0" x2="0" y1="1" y2="0"><stop stop-color="rgba(251, 249, 246, 1)" offset="0%"/><stop stop-color="rgba(251, 249, 246, 1)" offset="100%"/></linearGradient></defs><path style="transform:translate(0, 0px); opacity:1" fill="url(#sw-gradient-0)" d="M0,128L48,106.7C96,85,192,43,288,58.7C384,75,480,149,576,165.3C672,181,768,139,864,138.7C960,139,1056,181,1152,208C1248,235,1344,245,1440,234.7C1536,224,1632,192,1728,170.7C1824,149,1920,139,2016,154.7C2112,171,2208,213,2304,224C2400,235,2496,213,2592,181.3C2688,149,2784,107,2880,96C2976,85,3072,107,3168,101.3C3264,96,3360,64,3456,48C3552,32,3648,32,3744,32C3840,32,3936,32,4032,64C4128,96,4224,160,4320,181.3C4416,203,4512,181,4608,160C4704,139,4800,117,4896,122.7C4992,128,5088,160,5184,186.7C5280,213,5376,235,5472,250.7C5568,267,5664,277,5760,261.3C5856,245,5952,203,6048,165.3C6144,128,6240,96,6336,96C6432,96,6528,128,6624,122.7C6720,117,6816,75,6864,53.3L6912,32L6912,320L6864,320C6816,320,6720,320,6624,320C6528,320,6432,320,6336,320C6240,320,6144,320,6048,320C5952,320,5856,320,5760,320C5664,320,5568,320,5472,320C5376,320,5280,320,5184,320C5088,320,4992,320,4896,320C4800,320,4704,320,4608,320C4512,320,4416,320,4320,320C4224,320,4128,320,4032,320C3936,320,3840,320,3744,320C3648,320,3552,320,3456,320C3360,320,3264,320,3168,320C3072,320,2976,320,2880,320C2784,320,2688,320,2592,320C2496,320,2400,320,2304,320C2208,320,2112,320,2016,320C1920,320,1824,320,1728,320C1632,320,1536,320,1440,320C1344,320,1248,320,1152,320C1056,320,960,320,864,320C768,320,672,320,576,320C480,320,384,320,288,320C192,320,96,320,48,320L0,320Z"/><defs><linearGradient id="sw-gradient-1" x1="0" x2="0" y1="1" y2="0"><stop stop-color="rgba(251, 249, 246, 1)" offset="0%"/><stop stop-color="rgba(251, 249, 246, 1)" offset="100%"/></linearGradient></defs><path style="transform:translate(0, 50px); opacity:0.9" fill="url(#sw-gradient-1)" d="M0,224L48,186.7C96,149,192,75,288,58.7C384,43,480,85,576,90.7C672,96,768,64,864,48C960,32,1056,32,1152,42.7C1248,53,1344,75,1440,101.3C1536,128,1632,160,1728,181.3C1824,203,1920,213,2016,186.7C2112,160,2208,96,2304,101.3C2400,107,2496,181,2592,176C2688,171,2784,85,2880,53.3C2976,21,3072,43,3168,85.3C3264,128,3360,192,3456,229.3C3552,267,3648,277,3744,277.3C3840,277,3936,267,4032,261.3C4128,256,4224,256,4320,218.7C4416,181,4512,107,4608,101.3C4704,96,4800,160,4896,154.7C4992,149,5088,75,5184,48C5280,21,5376,43,5472,90.7C5568,139,5664,213,5760,229.3C5856,245,5952,203,6048,160C6144,117,6240,75,6336,48C6432,21,6528,11,6624,16C6720,21,6816,43,6864,53.3L6912,64L6912,320L6864,320C6816,320,6720,320,6624,320C6528,320,6432,320,6336,320C6240,320,6144,320,6048,320C5952,320,5856,320,5760,320C5664,320,5568,320,5472,320C5376,320,5280,320,5184,320C5088,320,4992,320,4896,320C4800,320,4704,320,4608,320C4512,320,4416,320,4320,320C4224,320,4128,320,4032,320C3936,320,3840,320,3744,320C3648,320,3552,320,3456,320C3360,320,3264,320,3168,320C3072,320,2976,320,2880,320C2784,320,2688,320,2592,320C2496,320,2400,320,2304,320C2208,320,2112,320,2016,320C1920,320,1824,320,1728,320C1632,320,1536,320,1440,320C1344,320,1248,320,1152,320C1056,320,960,320,864,320C768,320,672,320,576,320C480,320,384,320,288,320C192,320,96,320,48,320L0,320Z"/><defs><linearGradient id="sw-gradient-2" x1="0" x2="0" y1="1" y2="0"><stop stop-color="rgba(251, 249, 246, 0.24313725490196078)" offset="0%"/><stop stop-color="rgba(251, 249, 246, 1)" offset="100%"/></linearGradient></defs><path style="transform:translate(0, 100px); opacity:0.8" fill="url(#sw-gradient-2)" d="M0,192L48,192C96,192,192,192,288,186.7C384,181,480,171,576,138.7C672,107,768,53,864,69.3C960,85,1056,171,1152,181.3C1248,192,1344,128,1440,85.3C1536,43,1632,21,1728,48C1824,75,1920,149,2016,192C2112,235,2208,245,2304,234.7C2400,224,2496,192,2592,186.7C2688,181,2784,203,2880,213.3C2976,224,3072,224,3168,208C3264,192,3360,160,3456,170.7C3552,181,3648,235,3744,213.3C3840,192,3936,96,4032,53.3C4128,11,4224,21,4320,26.7C4416,32,4512,32,4608,58.7C4704,85,4800,139,4896,165.3C4992,192,5088,192,5184,170.7C5280,149,5376,107,5472,117.3C5568,128,5664,192,5760,208C5856,224,5952,192,6048,176C6144,160,6240,160,6336,149.3C6432,139,6528,117,6624,101.3C6720,85,6816,75,6864,69.3L6912,64L6912,320L6864,320C6816,320,6720,320,6624,320C6528,320,6432,320,6336,320C6240,320,6144,320,6048,320C5952,320,5856,320,5760,320C5664,320,5568,320,5472,320C5376,320,5280,320,5184,320C5088,320,4992,320,4896,320C4800,320,4704,320,4608,320C4512,320,4416,320,4320,320C4224,320,4128,320,4032,320C3936,320,3840,320,3744,320C3648,320,3552,320,3456,320C3360,320,3264,320,3168,320C3072,320,2976,320,2880,320C2784,320,2688,320,2592,320C2496,320,2400,320,2304,320C2208,320,2112,320,2016,320C1920,320,1824,320,1728,320C1632,320,1536,320,1440,320C1344,320,1248,320,1152,320C1056,320,960,320,864,320C768,320,672,320,576,320C480,320,384,320,288,320C192,320,96,320,48,320L0,320Z"/><defs><linearGradient id="sw-gradient-3" x1="0" x2="0" y1="1" y2="0"><stop stop-color="rgba(251, 249, 246, 1)" offset="0%"/><stop stop-color="rgba(251, 249, 246, 1)" offset="100%"/></linearGradient></defs><path style="transform:translate(0, 150px); opacity:0.7" fill="url(#sw-gradient-3)" d="M0,0L48,26.7C96,53,192,107,288,138.7C384,171,480,181,576,186.7C672,192,768,192,864,181.3C960,171,1056,149,1152,149.3C1248,149,1344,171,1440,192C1536,213,1632,235,1728,240C1824,245,1920,235,2016,240C2112,245,2208,267,2304,245.3C2400,224,2496,160,2592,144C2688,128,2784,160,2880,181.3C2976,203,3072,213,3168,197.3C3264,181,3360,139,3456,133.3C3552,128,3648,160,3744,186.7C3840,213,3936,235,4032,218.7C4128,203,4224,149,4320,133.3C4416,117,4512,139,4608,149.3C4704,160,4800,160,4896,165.3C4992,171,5088,181,5184,186.7C5280,192,5376,192,5472,181.3C5568,171,5664,149,5760,154.7C5856,160,5952,192,6048,181.3C6144,171,6240,117,6336,122.7C6432,128,6528,192,6624,202.7C6720,213,6816,171,6864,149.3L6912,128L6912,320L6864,320C6816,320,6720,320,6624,320C6528,320,6432,320,6336,320C6240,320,6144,320,6048,320C5952,320,5856,320,5760,320C5664,320,5568,320,5472,320C5376,320,5280,320,5184,320C5088,320,4992,320,4896,320C4800,320,4704,320,4608,320C4512,320,4416,320,4320,320C4224,320,4128,320,4032,320C3936,320,3840,320,3744,320C3648,320,3552,320,3456,320C3360,320,3264,320,3168,320C3072,320,2976,320,2880,320C2784,320,2688,320,2592,320C2496,320,2400,320,2304,320C2208,320,2112,320,2016,320C1920,320,1824,320,1728,320C1632,320,1536,320,1440,320C1344,320,1248,320,1152,320C1056,320,960,320,864,320C768,320,672,320,576,320C480,320,384,320,288,320C192,320,96,320,48,320L0,320Z"/></svg>